/* XPM */
static char *linux_inside[] = {
/* width height num_colors chars_per_pixel */
"    64    63        4            1",
/* colors */
". c #bebebe",
"# c #ff0000",
"a c #000000",
"b c #5d5d5d",
/* pixels */
"................................................................",
"................................................................",
"................................................................",
"................................................................",
"................................................................",
"................................................................",
"................................#################...............",
"............................#######################.............",
".........................###########################............",
"......................##############################............",
"....................################################............",
"..................################..........########............",
".................#############.................####.............",
"...............##########................###.#....#.............",
"..............#########...............aa..#.#.###...............",
".............########............aaa..aaa#########..............",
"............########.............aaaa.aaa.###.#####.............",
"...........######................aaaaaaa.##.########............",
"..........######..........aaa.....aaaaaa....#########...........",
"..........####............aaa..aa..aaaa.......########..........",
".........#####a...........aaa..aa..aaaaa.........######.........",
"........####..a...........aaa..aa..aaaaaa.........######........",
".......####..aa..a.aaaa...aaa..aa.aaaaaaa...........#####.......",
".......####.aaa.aa.aaaaaa.aaa..aa.aaa.aaa............###........",
".......####.aaa.aa.aaaaaa.aaa.aaa.aaa.aaaa..........#####.......",
"......####..aaa....aaaaaa..aaaaaa.aa...a..............###.......",
"......###...aaa.aa.aaa.aaa.aaaaaa..........aa.........####......",
"......###...aaa.aa.aaa.aaa..aaaaaa.........aaa.........###......",
"......###...aaa.aa.aaa..aa..aaaaaa.........aaa.........###......",
".....###....aaa.aa.aaa..aa..a.a.a....aaa...aaa..aaaa....###.....",
".....###....aaa.aa.aaa..aa...........aaa...aa..aaaaaa...###.....",
".....##.....aaa.aa.aaa...a............aa..aaa..aaaaa....###.....",
".....##.....aaa.aa..aa...........aaa.....aaaa.aa..aaa...###.....",
".....##.....aaa.aa..............aaaa.aa..aaaa.aaaaaa....##......",
".....##.....aa..aa...aa.aa.....aaaaa.aa.aaaaa.aaaaa.a..###......",
".....##.....aaa.aa...aa.aaaa...aaaa..aa.aa.aa.aaa..aa..###......",
".....###....aa.......aa.aaaaa..aaa...aa.aa.aa.aaaaaaa..###......",
".....###.....a..........aaaaaa.aaa...aa.aa.aa..aaaaa..###.......",
"......###...........aaa.aaaaaa..aaaa.aa.aaaaa...aaa...###.......",
"......###...........aaa.aaa.aa...aaa.aa.aaaaa........###........",
"......###...........aaa.aa..aa...aaa.aa.aaaaa........####.......",
"......####..........aaa.aa..aa..aaaa.aa...a.a.......####........",
".......####.........aaa.aa..aa.aaaaa.aa............####.........",
".......#####........aaa.aa..aa.aaaa...............####..........",
"........######......aa..aa...a.aaa...............####...........",
".........#####......aaa......a.................#####............",
"..........#####......a.......................#######............",
"...........######............................######.............",
"............#######.#.....................########..............",
".............##########..............###########................",
"...............#############.....#############..................",
"...............##############################...................",
"..................########################......................",
".....................#################..........................",
".........................###########............................",
"................................................................",
"................................................................",
"................................................................",
"................................................................",
"................................................................",
"................................................................",
"................................................................",
"...............................................................b"
};
SIMPLE  =                    T                                                  BITPIX  =                    8                                                  NAXIS   =                    2                                                  NAXIS1  =                   64                                                  NAXIS2  =                   63                                                  HISTORY Written by XV 3.10                                                      END                                                                                                                                                                                                                                                                                                                                                                                                                                                                                                                                                                                                                                                                                                                                                                                                                                                                                                                                                                                                                                                                                                                                                                                                                                                                                                                                                                                                                                                                                                                                                                                                                                                                                                                                                                                                                                                                                                                                                                                                                                                                                                                                                                                                                                                                                                                                                                                                                                                                                             ¾¾¾¾¾¾¾¾¾¾¾¾¾¾¾¾¾¾¾¾¾¾¾¾¾¾¾¾¾¾¾¾¾¾¾¾¾¾¾¾¾¾¾¾¾¾¾¾¾¾¾¾¾¾¾¾¾¾¾¾¾¾¾]¾¾¾¾¾¾¾¾¾¾¾¾¾¾¾¾¾¾¾¾¾¾¾¾¾¾¾¾¾¾¾¾¾¾¾¾¾¾¾¾¾¾¾¾¾¾¾¾¾¾¾¾¾¾¾¾¾¾¾¾¾¾¾¾¾¾¾¾¾¾¾¾¾¾¾¾¾¾¾¾¾¾¾¾¾¾¾¾¾¾¾¾¾¾¾¾¾¾¾¾¾¾¾¾¾¾¾¾¾¾¾¾¾¾¾¾¾¾¾¾¾¾¾¾¾¾¾¾¾¾¾¾¾¾¾¾¾¾¾¾¾¾¾¾¾¾¾¾¾¾¾¾¾¾¾¾¾¾¾¾¾¾¾¾¾¾¾¾¾¾¾¾¾¾¾¾¾¾¾¾¾¾¾¾¾¾¾¾¾¾¾¾¾¾¾¾¾¾¾¾¾¾¾¾¾¾¾¾¾¾¾¾¾¾¾¾¾¾¾¾¾¾¾¾¾¾¾¾¾¾¾¾¾¾¾¾¾¾¾¾¾¾¾¾¾¾¾¾¾¾¾¾¾¾¾¾¾¾¾¾¾¾¾¾¾¾¾¾¾¾¾¾¾¾¾¾¾¾¾¾¾¾¾¾¾¾¾¾¾¾¾¾¾¾¾¾¾¾¾¾¾¾¾¾¾¾¾¾¾¾¾¾¾¾¾¾¾¾¾¾¾¾¾¾¾¾¾¾¾¾¾¾¾¾¾¾¾¾¾¾¾¾¾¾¾¾¾¾¾¾¾¾¾¾¾¾¾¾¾¾¾¾¾¾¾¾¾¾¾¾¾¾¾¾¾¾¾¾¾¾¾¾¾¾¾¾¾¾¾¾¾¾¾¾¾¾¾¾¾¾¾¾¾¾¾¾¾¾¾¾¾¾¾¾¾¾¾¾¾¾¾¾¾¾¾¾¾¾¾¾¾¾¾¾¾¾¾¾¾¾¾¾¾¾¾¾¾¾¾¾¾¾¾¾¾¾¾¾¾¾¾¾¾¾¾¾¾¾¾¾¾¾¾WWWWWWWWWWW¾¾¾¾¾¾¾¾¾¾¾¾¾¾¾¾¾¾¾¾¾¾¾¾¾¾¾¾¾¾¾¾¾¾¾¾¾¾¾¾¾¾¾¾¾¾¾¾¾WWWWWWWWWWWWWWWWW¾¾¾¾¾¾¾¾¾¾¾¾¾¾¾¾¾¾¾¾¾¾¾¾¾¾¾¾¾¾¾¾¾¾¾¾¾¾¾¾¾¾¾¾WWWWWWWWWWWWWWWWWWWWWWWW¾¾¾¾¾¾¾¾¾¾¾¾¾¾¾¾¾¾¾¾¾¾¾¾¾¾¾¾¾¾¾¾¾¾¾¾¾WWWWWWWWWWWWWWWWWWWWWWWWWWWWWW¾¾¾¾¾¾¾¾¾¾¾¾¾¾¾¾¾¾¾¾¾¾¾¾¾¾¾¾¾¾¾¾¾¾WWWWWWWWWWWWW¾¾¾¾¾WWWWWWWWWWWWW¾¾¾¾¾¾¾¾¾¾¾¾¾¾¾¾¾¾¾¾¾¾¾¾¾¾¾¾¾¾¾WWWWWWWWWW¾¾¾¾¾¾¾¾¾¾¾¾¾¾WWWWWWWWWWW¾¾¾¾¾¾¾¾¾¾¾¾¾¾¾¾¾¾¾¾¾¾¾¾¾¾¾¾WWWWWWW¾W¾¾¾¾¾¾¾¾¾¾¾¾¾¾¾¾¾¾¾¾¾WWWWWWWW¾¾¾¾¾¾¾¾¾¾¾¾¾¾¾¾¾¾¾¾¾¾¾¾¾WWWWWW¾¾¾¾¾¾¾¾¾¾¾¾¾¾¾¾¾¾¾¾¾¾¾¾¾¾¾¾WWWWWW¾¾¾¾¾¾¾¾¾¾¾¾¾¾¾¾¾¾¾¾¾¾¾WWWWW¾¾¾¾¾¾ ¾¾¾¾¾¾¾¾¾¾¾¾¾¾¾¾¾¾¾¾¾¾¾WWWWWWW¾¾¾¾¾¾¾¾¾¾¾¾¾¾¾¾¾¾¾¾¾WWWWW¾¾¾¾¾¾   ¾¾¾¾¾¾ ¾¾¾¾¾¾¾¾¾¾¾¾¾¾¾¾¾WWWWW¾¾¾¾¾¾¾¾¾¾¾¾¾¾¾¾¾¾¾¾WWWWWW¾¾¾¾¾¾  ¾¾  ¾¾¾ ¾   ¾¾¾¾¾¾¾¾¾¾¾¾¾¾¾WWWW¾¾¾¾¾¾¾¾¾¾¾¾¾¾¾¾¾¾WWWWW¾¾¾¾¾¾¾¾   ¾  ¾¾  ¾    ¾¾¾¾¾¾¾¾¾¾¾¾¾¾¾WWWW¾¾¾¾¾¾¾¾¾¾¾¾¾¾¾¾¾WWWW¾¾¾¾¾¾¾¾¾   ¾  ¾¾  ¾     ¾  ¾¾¾¾¾¾¾¾¾¾¾¾WWWW¾¾¾¾¾¾¾¾¾¾¾¾¾¾¾WWWW¾¾¾¾¾¾¾¾¾¾   ¾  ¾¾  ¾¾    ¾  ¾¾¾ ¾ ¾¾¾¾¾¾¾WWWW¾¾¾¾¾¾¾¾¾¾¾¾¾¾WWW¾¾¾¾¾¾¾¾¾¾¾   ¾  ¾¾  ¾¾¾   ¾  ¾     ¾¾¾¾¾¾¾¾WWWW¾¾¾¾¾¾¾¾¾¾¾¾¾WWW¾¾¾¾¾¾¾¾¾¾¾   ¾   ¾  ¾¾¾   ¾  ¾     ¾¾¾¾¾¾¾¾WWW¾¾¾¾¾¾¾¾¾¾¾¾¾¾WWW¾¾¾¾¾¾¾¾¾¾¾   ¾      ¾¾    ¾  ¾     ¾¾¾   ¾¾¾WWW¾¾¾¾¾¾¾¾¾¾¾¾WWW¾¾¾¾¾ ¾¾¾¾¾¾¾¾¾¾      ¾   ¾¾¾  ¾  ¾  ¾¾     ¾¾WWW¾¾¾¾¾¾¾¾¾¾¾¾WWW¾¾¾¾  ¾¾¾¾¾¾¾  ¾     ¾¾   ¾¾¾  ¾  ¾  ¾       ¾¾WWW¾¾¾¾¾¾¾¾¾¾¾WW¾¾¾¾¾   ¾  ¾¾¾  ¾    ¾¾¾    ¾¾  ¾  ¾  ¾   ¾¾  ¾¾WWW¾¾¾¾¾¾¾¾¾¾¾WW¾¾¾¾¾  ¾¾  ¾¾¾  ¾  ¾¾¾¾¾     ¾  ¾     ¾     ¾ ¾¾WWW¾¾¾¾¾¾¾¾¾¾¾WW¾¾¾¾¾   ¾  ¾¾¾¾¾¾¾¾¾¾¾¾¾¾    ¾  ¾¾    ¾      ¾¾¾¾WW¾¾¾¾¾¾¾¾¾¾¾WW¾¾¾¾¾   ¾  ¾¾  ¾¾¾¾¾¾¾¾¾¾¾   ¾¾¾¾¾    ¾  ¾¾   ¾¾¾WWW¾¾¾¾¾¾¾¾¾¾WW¾¾¾¾¾   ¾  ¾   ¾¾¾ ¾¾¾¾¾¾¾¾¾¾¾¾  ¾¾   ¾¾     ¾¾¾¾WWW¾¾¾¾¾¾¾¾¾¾WWW¾¾¾¾   ¾  ¾   ¾¾  ¾¾¾¾¾¾¾¾¾¾¾   ¾¾¾  ¾¾      ¾¾¾WWW¾¾¾¾¾¾¾¾¾¾WWW¾¾¾¾   ¾  ¾   ¾¾  ¾¾ ¾ ¾ ¾¾¾¾   ¾¾¾   ¾¾    ¾¾¾¾WWW¾¾¾¾¾¾¾¾¾¾¾WWW¾¾¾   ¾  ¾   ¾¾  ¾¾      ¾¾¾¾¾¾¾¾¾   ¾¾¾¾¾¾¾¾¾WWW¾¾¾¾¾¾¾¾¾¾¾¾WWW¾¾¾   ¾  ¾   ¾   ¾¾      ¾¾¾¾¾¾¾¾¾   ¾¾¾¾¾¾¾¾¾WWW¾¾¾¾¾¾¾¾¾¾¾¾WWW¾¾¾   ¾  ¾   ¾   ¾      ¾¾¾¾¾¾¾¾¾¾  ¾¾¾¾¾¾¾¾¾WWWW¾¾¾¾¾¾¾¾¾¾¾¾WWWW¾¾   ¾¾¾¾      ¾¾      ¾  ¾¾¾ ¾¾¾¾¾¾¾¾¾¾¾¾¾¾WWW¾¾¾¾¾¾¾¾¾¾¾¾¾¾WWWW¾   ¾  ¾      ¾   ¾   ¾   ¾    ¾¾¾¾¾¾¾¾¾¾WWWWW¾¾¾¾¾¾¾¾¾¾¾¾¾¾WWWW¾   ¾  ¾      ¾   ¾¾  ¾   ¾   ¾¾¾¾¾¾¾¾¾¾¾¾WWW¾¾¾¾¾¾¾¾¾¾¾¾¾¾¾WWWW¾¾  ¾¾ ¾    ¾¾¾   ¾¾  ¾       ¾¾¾¾¾¾¾¾¾¾¾WWWWW¾¾¾¾¾¾¾¾¾¾¾¾¾¾¾WWWW¾¾ ¾¾¾¾¾¾¾¾¾¾¾   ¾¾  ¾¾      ¾¾¾¾¾¾¾¾¾WWWWWW¾¾¾¾¾¾¾¾¾¾¾¾¾¾¾¾¾WWWWW ¾¾¾¾¾¾¾¾¾¾¾   ¾¾  ¾¾     ¾¾¾¾¾¾¾¾¾WWWWWW¾¾¾¾¾¾¾¾¾¾¾¾¾¾¾¾¾¾¾WWWW¾¾¾¾¾¾¾¾¾¾¾¾   ¾¾  ¾¾    ¾¾¾¾¾¾¾WWWWWWWW¾¾¾¾¾¾¾¾¾¾¾¾¾¾¾¾¾¾¾¾WWWWWW¾¾¾¾¾¾¾¾¾¾   ¾¾¾¾¾      ¾¾¾¾WWWWWWWWW¾¾¾¾¾¾¾¾¾¾¾¾¾¾¾¾¾¾¾¾¾¾WWWWWW¾¾¾¾¾¾¾¾¾¾¾¾¾¾¾¾       ¾WW¾WWWWWWWW¾¾¾¾¾¾¾¾¾¾¾¾¾¾¾¾¾¾¾¾¾¾¾¾WWWWWWWW¾¾¾¾¾¾¾¾¾¾¾¾¾    ¾   ¾WWW¾WWWWW¾¾¾¾¾¾¾¾¾¾¾¾¾¾¾¾¾¾¾¾¾¾¾¾¾¾WWWWWWWW¾¾¾¾¾¾¾¾¾¾¾¾   ¾¾   WWWWWWWWW¾¾¾¾¾¾¾¾¾¾¾¾¾¾¾¾¾¾¾¾¾¾¾¾¾¾¾¾WWWWWWWWW¾¾¾¾¾¾¾¾¾¾¾¾¾¾¾  ¾¾W¾W¾WWW¾¾¾¾¾¾¾¾¾¾¾¾¾¾¾¾¾¾¾¾¾¾¾¾¾¾¾¾¾¾WWWWWWWWWW¾¾¾¾¾¾¾¾¾¾¾¾¾¾¾¾WWW¾W¾¾¾¾W¾¾¾¾¾¾¾¾¾¾¾¾¾¾¾¾¾¾¾¾¾¾¾¾¾¾¾¾¾¾WWWWWWWWWWWWW¾¾¾¾¾¾¾¾¾¾¾¾¾¾¾¾¾WWWW¾¾¾¾¾¾¾¾¾¾¾¾¾¾¾¾¾¾¾¾¾¾¾¾¾¾¾¾¾¾¾WWWWWWWWWWWWWWWW¾¾¾¾¾¾¾¾¾¾WWWWWWWW¾¾¾¾¾¾¾¾¾¾¾¾¾¾¾¾¾¾¾¾¾¾¾¾¾¾¾¾¾¾¾¾WWWWWWWWWWWWWWWWWWWWWWWWWWWWWWWW¾¾¾¾¾¾¾¾¾¾¾¾¾¾¾¾¾¾¾¾¾¾¾¾¾¾¾¾¾¾¾¾¾¾WWWWWWWWWWWWWWWWWWWWWWWWWWWWWW¾¾¾¾¾¾¾¾¾¾¾¾¾¾¾¾¾¾¾¾¾¾¾¾¾¾¾¾¾¾¾¾¾¾¾¾¾WWWWWWWWWWWWWWWWWWWWWWWWWWW¾¾¾¾¾¾¾¾¾¾¾¾¾¾¾¾¾¾¾¾¾¾¾¾¾¾¾¾¾¾¾¾¾¾¾¾¾¾¾¾WWWWWWWWWWWWWWWWWWWWWWW¾¾¾¾¾¾¾¾¾¾¾¾¾¾¾¾¾¾¾¾¾¾¾¾¾¾¾¾¾¾¾¾¾¾¾¾¾¾¾¾¾¾¾¾¾WWWWWWWWWWWWWWWWW¾¾¾¾¾¾¾¾¾¾¾¾¾¾¾¾¾¾¾¾¾¾¾¾¾¾¾¾¾¾¾¾¾¾¾¾¾¾¾¾¾¾¾¾¾¾¾¾¾¾¾¾¾¾¾¾¾¾¾¾¾¾¾¾¾¾¾¾¾¾¾¾¾¾¾¾¾¾¾¾¾¾¾¾¾¾¾¾¾¾¾¾¾¾¾¾¾¾¾¾¾¾¾¾¾¾¾¾¾¾¾¾¾¾¾¾¾¾¾¾¾¾¾¾¾¾¾¾¾¾¾¾¾¾¾¾¾¾¾¾¾¾¾¾¾¾¾¾¾¾¾¾¾¾¾¾¾¾¾¾¾¾¾¾¾¾¾¾¾¾¾¾¾¾¾¾¾¾¾¾¾¾¾¾¾¾¾¾¾¾¾¾¾¾¾¾¾¾¾¾¾¾¾¾¾¾¾¾¾¾¾¾¾¾¾¾¾¾¾¾¾¾¾¾¾¾¾¾¾¾¾¾¾¾¾¾¾¾¾¾¾¾¾¾¾¾¾¾¾¾¾¾¾¾¾¾¾¾¾¾¾¾¾¾¾¾¾¾¾¾¾¾¾¾¾¾¾¾¾¾¾¾¾¾¾¾¾¾¾¾¾¾¾¾¾¾¾¾¾¾¾¾¾¾¾¾¾¾¾¾¾¾¾¾¾¾¾¾¾¾¾¾¾¾¾¾¾¾¾¾¾¾¾¾¾¾¾¾¾¾¾¾¾¾¾¾¾¾¾¾¾¾¾¾¾¾¾¾¾¾¾¾¾¾¾¾¾¾¾¾¾¾¾¾¾¾¾¾¾¾¾¾¾¾¾¾¾¾¾¾¾¾¾¾¾¾¾¾¾                                                                                                                                                                                                                                                                                                                                                                                                                                                                                                                                                                                                                                                                                                                                                                                                                                                                                                                                                                                                                                                                                                                                                                                                                                                                                                                                                                                                                                                                                                                                                                                                                                                                                                                                                                                                