/* XPM */
static char *logo[] = {
/* width height num_colors chars_per_pixel */
"   107   105        2            1",
/* colors */
". c #ffffff",
"# c #000000",
/* pixels */
"...........................................................................................................",
"...........................................................................................................",
"...........................................................................................................",
"...........................................................................................................",
".......................####................................................................................",
"......................#######..............................................................................",
".....................########..............................................................................",
".....................#########...................#.........................................................",
".....................#########.............................................................................",
".....................##########............................................................................",
".....................#########.............................................................................",
".....................#########.............................................................................",
".....................##########...........................................................#................",
"....................############.........................................................####..............",
"....................#############.......................................................######.............",
"....................#############.......................................................######.............",
"....................##############.....................................................########............",
"....................###############.....................................................########...........",
"....................################.....................................................########..........",
"....................#################......................................................######..........",
"....................##################......................................................####...........",
"....................############..#####....................................................#####...........",
"....................############...#####...................................................................",
"....................############....#####..................................................................",
"....................###############....####................................................................",
".....................################...####...............................................................",
".....................########################..............................................................",
"......................#######################..............................................................",
"......................##########.##############............................................................",
"......................###########.........#.####...........................................................",
".......................###########...........#####.........................................................",
".......................###########.............#####.......................................................",
".......................###########..............#####......................................................",
".......................############............######......................................................",
"......................##############............####.......................................................",
".......................##############...........##.........................................................",
".......................###############.....................................................................",
".......................###############.....................................................................",
".......................################....................................................................",
"........................################...................................................................",
"........................################.....................................#......#......................",
"........................#################................................#..#..#..#...#....................",
"........................#################................................#..#....##.......##...............",
"........................##################...............................#..###..##........#...............",
".........................#######..#########..............................#...###.##..###.#.##..............",
".........................#######...########...........................##.#.....#.##...#.....#..............",
".........................#######.....#######...........................#.#..#..#..#...#.#...##.............",
".........................#######......#######..............................................................",
".........................#######.......######..............................................................",
".........................######........#######.............................................................",
".......................########.........#######............................................................",
".....................##########..........#######...........................................................",
"...................############...........######...........................................................",
"..................############.............######..........................................................",
"...............##############...............#####..........................................................",
"..............#############...................####.........................................................",
".........##############........................####........................................................",
".........###########............................####.......................................................",
"........########.................................####......................................................",
"........#####....................................######....................................................",
"........####.....................................#######...................................................",
".......####.........................................#####..................................................",
".......###.................................................................................................",
".......###.................................................................................................",
".......##..................................................................................................",
"...........................................................................................................",
"...........................................................................................................",
"...############........######..################################.........############.......#########.......",
"..#............##......#....##.#..............##..............#.........##..........##...###.......##......",
"..#.............#......#.....#.#..............##..............#.........##...........##..#..........##.....",
"..###########...##....##.....##################################.........##########....#.#....#####...##....",
"............##...#....#...#...#..............................#.######............##...###...#....##...#....",
"...#####....##..##...##...#...#......####............####.....#.....##...####.....#...###...#.....#####....",
"...#...######...#....#...##...##....#....#..........#....#...#........#.#...##....#...#.#....####..........",
"...#...........##....#...###...#....#....#..........#....#..#....##...#.#...#######...#.##......#####......",
"...#............#...##...#.#...#....#....#..........#....#..#...#.##...##............#...##.........##.....",
"...#...######....#..#...#..#...##...#....#..........#....#..#..........##............#....####.......##....",
"...#...#.....#...#.##...#..##...#...#....#..........#....#..#..........##...######....#......#####....#....",
"...#...#.....#...#.#...##...#...##..#....#..........#....#..#..##########...##...##...#.#####....##...#....",
"...#...######....#.#...#....#....#..#....#..........#....#..#...#.......#...##....#...#.#...#.....#...#....",
"...#............####...####.##...#..#....#..........#....#..#...#########...##....#...#.#...#######...#....",
"...#............#.#.......#..#...##.#...##..........#....#..##........#.#...##....#...#.##...........##....",
"...#..........##.##.......#..#....#.#...##..........#....#...##......#..#...##....#...##.##.........##.....",
"...############..###########.######.######..........######....#######...#####.....######..###.....###......",
"............................................................................................#######........",
"...........................................................................................................",
"...###....##.#.................#.#..##......#.#......##..#...............#.................................",
"...#.####.##.#........###.######.#..#.###.#####.#..#...#.#..#.#.###.#.#.###.#..##.#.........#..............",
"...#.###..#..##......#.###.#.####...#.#.###.#.#........#.##.#..#...##.#....##..##.#.####....###....####....",
"..................................................##........#.#.#.#.#.#.###.#..#.######.#..#.##.....#......",
".................................................................##.................#................#.....",
"...........................................................................................................",
"....#.....#.....##..........................................#...#...................#..#...................",
"....##....#.....##..#..#..###.......##..............##.......#..##...........#.#.#..#..####....##..........",
"....##....#.....##......###.#....#..##...........###.##.....##.#.............#..#...##.#.##...##.##........",
"....##....#....####........##.#.#.#.................##....#######............#......#.#.###...#..####......",
"....##....#....#####......##..##...#....########....##....####.#...#######...###....##...#...#######.......",
"....##....#....###.##.....##...#...##....#.........##.......#..#...#######...#.##...#######.......##.......",
"....##....#...#.##.##....#..#.......##............##.#.....##..#.............#..#...#######....#...........",
"....##....#..#.######...#...##.......#...........##..##....#.###.............#......##.####...#...##.......",
"....#######.....##.....#.....#..................#.....##..#..###.............#......#####.#..#######.......",
"................#............................................................#......#.##.##..#.....#.......",
"...........................................................................................................",
"...........................................................................................................",
"..........................................................................................................."
};
